<?xml version="1.0" encoding="UTF-8" standalone="no"?>
<!-- Generator: Adobe Illustrator 19.0.0, SVG Export Plug-In . SVG Version: 6.00 Build 0)  -->

<svg
   xmlns:dc="http://purl.org/dc/elements/1.1/"
   xmlns:cc="http://creativecommons.org/ns#"
   xmlns:rdf="http://www.w3.org/1999/02/22-rdf-syntax-ns#"
   xmlns:svg="http://www.w3.org/2000/svg"
   xmlns="http://www.w3.org/2000/svg"
   xmlns:sodipodi="http://sodipodi.sourceforge.net/DTD/sodipodi-0.dtd"
   xmlns:inkscape="http://www.inkscape.org/namespaces/inkscape"
   version="1.1"
   id="Layer_1"
   x="0px"
   y="0px"
   viewBox="0 0 96 96"
   style="enable-background:new 0 0 96 96;"
   xml:space="preserve"
   sodipodi:docname="Hacker-02.svg"
   inkscape:version="0.92.2 2405546, 2018-03-11"><metadata
   id="metadata22"><rdf:RDF><cc:Work
       rdf:about=""><dc:format>image/svg+xml</dc:format><dc:type
         rdf:resource="http://purl.org/dc/dcmitype/StillImage" /></cc:Work></rdf:RDF></metadata><defs
   id="defs20" /><sodipodi:namedview
   pagecolor="#ffffff"
   bordercolor="#666666"
   borderopacity="1"
   objecttolerance="10"
   gridtolerance="10"
   guidetolerance="10"
   inkscape:pageopacity="0"
   inkscape:pageshadow="2"
   inkscape:window-width="1600"
   inkscape:window-height="873"
   id="namedview18"
   showgrid="false"
   inkscape:zoom="4.9166667"
   inkscape:cx="2.8790121"
   inkscape:cy="33.338813"
   inkscape:window-x="0"
   inkscape:window-y="27"
   inkscape:window-maximized="0"
   inkscape:current-layer="XMLID_1_" />
<style
   type="text/css"
   id="style2">
	.st0{fill:#FABC3D;}
	.st1{fill:#3E3E3F;}
	.st2{fill:#E2E4E5;}
	.st3{fill:#FFFFFF;}
	.st4{fill:#F7B4B4;}
	.st5{fill:#FBC8C8;}
</style>
<g
   id="XMLID_1_">
	<circle
   id="XMLID_3_"
   class="st0"
   cx="48"
   cy="48"
   r="32.5"
   style="fill:#3e3e3f;fill-opacity:1" />
	<path
   id="XMLID_4_"
   class="st1"
   d="m 68.683397,61.642443 c -0.501109,-1.002219 -1.252774,-1.753882 -2.254992,-2.254992 l -7.266086,-2.004437 c 6.013312,-7.140807 9.896908,-15.91022 -0.125276,-26.057683 -3.75832,-3.758319 -11.149682,-5.261648 -11.149682,-5.261648 0,0 -7.391362,1.503329 -11.14968,5.261648 -10.022187,10.147463 -6.013312,18.916876 0,26.057683 l -7.266086,2.004437 c -1.002218,0.375831 -1.753883,1.252773 -2.254992,2.254992 l -3.006655,8.143026 h 23.802691 23.677413 z"
   inkscape:connector-curvature="0"
   style="fill:#212121;stroke-width:1.25277317;fill-opacity:1" />
	<path
   id="XMLID_5_"
   class="st2"
   d="m 56.155664,35.960591 c -2.254991,-2.254991 -4.384705,-1.503327 -8.143025,-1.503327 -3.75832,0 -5.888034,-0.751664 -8.143025,1.503327 -3.633044,3.633042 -1.879161,12.277178 1.503327,19.292708 3.006656,3.131933 6.764975,4.134152 6.764975,4.134152 0,0 3.633043,-1.002219 6.514421,-4.008874 3.382487,-7.015531 5.011093,-15.784944 1.503327,-19.417986 z"
   inkscape:connector-curvature="0"
   style="fill:#e2e4e5;stroke-width:1.25277317" />
	<path
   id="XMLID_6_"
   class="st3"
   d="m 39.869614,35.960591 c -3.633044,3.633042 -1.879161,12.277178 1.503327,19.417986 3.006656,3.006655 6.639698,4.134151 6.639698,4.134151 V 34.457264 c -3.75832,0 -6.013312,-0.751664 -8.143025,1.503327 z"
   inkscape:connector-curvature="0"
   style="fill:#ffffff;stroke-width:1.25277317" />
	<polygon
   id="XMLID_7_"
   class="st1"
   points="46.8,53.9 49.2,53.9 48,58 "
   transform="matrix(1.2527732,0,0,1.2527732,-12.120475,-14.025059)"
   style="fill:#3e3e3f" />
	<path
   id="XMLID_8_"
   class="st1"
   d="m 55.404001,47.611383 -2.254991,1.503328 -3.758321,-1.503328 h -0.751663 -1.503328 -0.751664 l -3.75832,1.503328 -2.254991,-1.503328 h -0.751666 l 1.503329,2.129715 c 0.375832,0.501109 1.127495,0.87694 1.753883,0.87694 h 3.382487 l 1.753883,-2.004436 1.503327,2.004436 h 3.382488 c 0.751665,0 1.378051,-0.375831 1.753883,-0.87694 l 1.503327,-2.129715 z"
   inkscape:connector-curvature="0"
   style="fill:#3e3e3f;stroke-width:1.25277317" />
	<path
   id="XMLID_9_"
   class="st1"
   d="m 47.260974,43.101399 c -2.254991,-4.384705 -7.39136,0 -7.39136,0 z"
   inkscape:connector-curvature="0"
   style="fill:#3e3e3f;stroke-width:1.25277317" />
	<path
   id="XMLID_10_"
   class="st1"
   d="m 48.764302,43.101399 c 2.254992,-4.384705 7.391362,0 7.391362,0 z"
   inkscape:connector-curvature="0"
   style="fill:#3e3e3f;stroke-width:1.25277317" />
	<path
   id="XMLID_11_"
   class="st1"
   d="m 40.621277,37.213366 c 1.503328,-0.751665 6.639697,2.380267 6.639697,2.380267 0,0 -4.509984,-6.013309 -6.639697,-2.380267 z"
   inkscape:connector-curvature="0"
   style="fill:#3e3e3f;stroke-width:1.25277317" />
	<path
   id="XMLID_12_"
   class="st1"
   d="m 55.404001,37.213366 c -1.503328,-0.751665 -6.639699,2.380267 -6.639699,2.380267 0,0 4.384708,-6.013309 6.639699,-2.380267 z"
   inkscape:connector-curvature="0"
   style="fill:#3e3e3f;stroke-width:1.25277317" />
	<path
   id="XMLID_13_"
   class="st4"
   d="m 48.012639,59.387451 c 0,0 -3.633042,-1.002219 -6.639698,-4.134152 1.87916,3.883596 4.259428,7.266084 6.639698,9.145244 2.380268,-1.87916 4.760538,-5.261648 6.639698,-9.145244 -3.006656,3.131933 -6.639698,4.134152 -6.639698,4.134152 z"
   inkscape:connector-curvature="0"
   style="fill:#f7b4b4;stroke-width:1.25277317" />
	<path
   id="XMLID_14_"
   class="st5"
   d="m 41.372941,55.378577 c 1.87916,3.883597 4.259428,7.266084 6.639698,9.145244 v -5.13637 c 0,0 -3.633042,-1.002219 -6.639698,-4.008874 z"
   inkscape:connector-curvature="0"
   style="fill:#fbc8c8;stroke-width:1.25277317" />
</g>
</svg>